<?xml version="1.0" encoding="utf-8"?>
<svg id="master-artboard" viewBox="0 0 579.5320434570312 290.5348205566406" version="1.1" xmlns="http://www.w3.org/2000/svg" viewBox="-80 -80 600 300"  style="enable-background:new 0 0 336 235.2;"><defs><style id="ee-google-fonts">@import url(https://fonts.googleapis.com/css?family=Kaushan+Script:400);</style></defs><rect id="ee-background" x="0" y="0" style="fill: white; fill-opacity: 0; pointer-events: none;"/><path d="M 110.96138763427734 74.37998962402344 C 111.0280532836914 74.74665832519531 111.07804870605469 74.99665832519531 111.11138916015625 75.12998962402344 C 111.14472198486328 75.26998901367188 111.16138458251953 75.45999145507812 111.16138458251953 75.69999694824219 C 111.16138458251953 76.39999389648438 111.00471496582031 77.05665588378906 110.6913833618164 77.66999053955078 C 110.38471984863281 78.27665710449219 109.96138763427734 78.70999145507812 109.42138671875 78.9699935913086 C 108.99472045898438 78.3899917602539 108.47138977050781 77.89332580566406 107.85138702392578 77.47999572753906 C 107.23138427734375 77.05998992919922 106.55138397216797 76.71665954589844 105.81138610839844 76.44999694824219 C 105.07804870605469 76.1833267211914 104.3147201538086 75.98665618896484 103.5213851928711 75.85999298095703 C 102.7280502319336 75.7266616821289 101.95805358886719 75.65998840332031 101.21138763427734 75.65998840332031 C 100.4647216796875 75.65998840332031 99.76471710205078 75.7199935913086 99.11138916015625 75.83999633789062 C 98.45805358886719 75.95999145507812 97.88138580322266 76.1199951171875 97.38138580322266 76.31999206542969 C 96.88138580322266 76.52665710449219 96.4847183227539 76.77999114990234 96.1913833618164 77.07999420166016 C 95.90471649169922 77.37332153320312 95.76138305664062 77.71332550048828 95.76138305664062 78.09999084472656 C 95.82804870605469 78.57332611083984 96.11804962158203 79.04998779296875 96.63138580322266 79.52999114990234 C 97.13805389404297 80.00999450683594 97.76805114746094 80.47999572753906 98.5213851928711 80.93999481201172 C 99.26805114746094 81.39999389648438 100.09471893310547 81.85332489013672 101.00138854980469 82.29999542236328 C 101.91471862792969 82.75332641601562 102.80805206298828 83.1833267211914 103.68138885498047 83.58999633789062 C 104.77471923828125 84.10332489013672 105.7147216796875 84.57666015625 106.50138854980469 85.00999450683594 C 107.29472351074219 85.44998931884766 107.94805145263672 85.9333267211914 108.46138763427734 86.45999145507812 C 108.97471618652344 86.97999572753906 109.36138916015625 87.57332611083984 109.62138366699219 88.239990234375 C 109.87471771240234 88.89999389648438 110.00138854980469 89.69998931884766 110.00138854980469 90.6399917602539 C 110.00138854980469 91.73332214355469 109.8213882446289 92.75666046142578 109.46138763427734 93.70999145507812 C 109.09471893310547 94.65666198730469 108.5647201538086 95.48332214355469 107.87138366699219 96.18999481201172 C 107.17805480957031 96.89665985107422 106.33805084228516 97.4466552734375 105.35138702392578 97.8399887084961 C 104.36471557617188 98.239990234375 103.26471710205078 98.43999481201172 102.05138397216797 98.43999481201172 C 100.85138702392578 98.43999481201172 99.55471801757812 98.25666046142578 98.16138458251953 97.8899917602539 C 96.77471923828125 97.52999114990234 95.4780502319336 97.0333251953125 94.2713851928711 96.39999389648438 C 93.0647201538086 95.76666259765625 92.05805206298828 95.03999328613281 91.25138854980469 94.2199935913086 C 90.45138549804688 93.39332580566406 90.05138397216797 92.52332305908203 90.05138397216797 91.60999298095703 C 90.05138397216797 91.1766586303711 90.17472076416016 90.62998962402344 90.42138671875 89.9699935913086 C 90.66805267333984 89.30998992919922 91.11138916015625 88.61332702636719 91.75138854980469 87.87998962402344 C 91.81805419921875 88.52665710449219 92.16471862792969 89.28665924072266 92.79138946533203 90.15998840332031 C 93.42472076416016 91.03999328613281 94.37138366699219 91.85332489013672 95.63138580322266 92.59999084472656 C 96.80471801757812 93.28665924072266 98.01805114746094 93.7833251953125 99.2713851928711 94.0899887084961 C 100.52471923828125 94.40332794189453 101.69471740722656 94.55998992919922 102.78138732910156 94.55998992919922 C 103.98138427734375 94.55998992919922 104.95471954345703 94.40999603271484 105.70138549804688 94.10999298095703 C 106.45471954345703 93.80998992919922 107.04472351074219 93.44998931884766 107.47138977050781 93.02999114990234 C 107.89805603027344 92.61666107177734 108.19471740722656 92.1966552734375 108.36138916015625 91.76998901367188 C 108.53472137451172 91.33666229248047 108.63138580322266 90.99332427978516 108.65138244628906 90.739990234375 C 108.63138580322266 90.31332397460938 108.43472290039062 89.89999389648438 108.06138610839844 89.49999237060547 C 107.68804931640625 89.10665893554688 107.18472290039062 88.72332763671875 106.55138397216797 88.34999084472656 C 105.92472076416016 87.9766616821289 105.19471740722656 87.5966567993164 104.36138916015625 87.20999145507812 C 103.5213851928711 86.82332611083984 102.65471649169922 86.43999481201172 101.76138305664062 86.05998992919922 C 100.41471862792969 85.45999145507812 99.25472259521484 84.89665985107422 98.28138732910156 84.3699951171875 C 97.30805206298828 83.84999084472656 96.50472259521484 83.31665802001953 95.87138366699219 82.76998901367188 C 95.24472045898438 82.22332763671875 94.78472137451172 81.64999389648438 94.49138641357422 81.04999542236328 C 94.20471954345703 80.44998931884766 94.06138610839844 79.76666259765625 94.06138610839844 78.99999237060547 C 94.06138610839844 77.79998779296875 94.42472076416016 76.66665649414062 95.15138244628906 75.59999084472656 C 95.8780517578125 74.5333251953125 96.92472076416016 73.7199935913086 98.2913818359375 73.15998840332031 C 98.9780502319336 72.85999298095703 99.71138763427734 72.64665985107422 100.49138641357422 72.51998901367188 C 101.2713851928711 72.39332580566406 102.03472137451172 72.32999420166016 102.78138732910156 72.32999420166016 C 104.19471740722656 72.32999420166016 105.57472229003906 72.52332305908203 106.92138671875 72.90998840332031 C 108.26805114746094 73.28999328613281 109.61471557617188 73.77999114990234 110.96138763427734 74.37998962402344 ZM 112.11778259277344 95.44998931884766 C 112.11778259277344 94.70332336425781 112.19111633300781 93.82332611083984 112.33778381347656 92.80998992919922 C 112.4911117553711 91.78999328613281 112.71111297607422 90.70332336425781 112.9977798461914 89.54999542236328 C 113.2844467163086 88.39665985107422 113.62777709960938 87.18999481201172 114.02777862548828 85.92999267578125 C 114.42111206054688 84.66999053955078 114.86444854736328 83.40666198730469 115.35778045654297 82.1399917602539 C 115.7844467163086 81.00666046142578 116.28111267089844 79.86332702636719 116.8477783203125 78.70999145507812 C 117.41444396972656 77.55665588378906 118.02777862548828 76.42332458496094 118.68778228759766 75.30998992919922 C 119.35444641113281 74.1966552734375 120.04444885253906 73.1399917602539 120.75778198242188 72.1399917602539 C 121.477783203125 71.1333236694336 122.20111083984375 70.21332550048828 122.92778015136719 69.37998962402344 C 123.26777648925781 69.37998962402344 123.63777923583984 69.42332458496094 124.03778076171875 69.50999450683594 C 124.43111419677734 69.58999633789062 124.81444549560547 69.69999694824219 125.18778228759766 69.83999633789062 C 125.56111145019531 69.97999572753906 125.90444946289062 70.14665985107422 126.21778106689453 70.33999633789062 C 126.52444458007812 70.5333251953125 126.77444458007812 70.7266616821289 126.96778106689453 70.91999053955078 C 125.36111450195312 72.56665802001953 123.91777801513672 74.2266616821289 122.63777923583984 75.89999389648438 C 121.35778045654297 77.57999420166016 120.34111022949219 79.15998840332031 119.58778381347656 80.6399917602539 C 119.18111419677734 81.4466552734375 118.81444549560547 82.20332336425781 118.48777770996094 82.90998840332031 C 118.15444946289062 83.61666107177734 117.8477783203125 84.31665802001953 117.56777954101562 85.00999450683594 C 117.29444885253906 85.70999145507812 117.04444885253906 86.40666198730469 116.81777954101562 87.09999084472656 C 116.59111022949219 87.79332733154297 116.38111114501953 88.52665710449219 116.18778228759766 89.29999542236328 C 120.29444885253906 84.05998992919922 123.34111022949219 81.43999481201172 125.3277816772461 81.43999481201172 C 125.88777923583984 81.43999481201172 126.48777770996094 81.6199951171875 127.12777709960938 81.97999572753906 C 127.76777648925781 82.3466567993164 128.33444213867188 82.83999633789062 128.82778930664062 83.45999145507812 C 128.16778564453125 84.18666076660156 127.48445129394531 85.06332397460938 126.77777862548828 86.08999633789062 C 126.07111358642578 87.11666107177734 125.42444610595703 88.14665985107422 124.83778381347656 89.17999267578125 C 124.25111389160156 90.2199935913086 123.76777648925781 91.1833267211914 123.38777923583984 92.06999206542969 C 123.01445007324219 92.95665740966797 122.8277816772461 93.61332702636719 122.8277816772461 94.03999328613281 C 122.8277816772461 94.25332641601562 122.86111450195312 94.39999389648438 122.92778015136719 94.47999572753906 C 122.98777770996094 94.55332946777344 123.12777709960938 94.5899887084961 123.3477783203125 94.5899887084961 C 123.66777801513672 94.5899887084961 123.92444610595703 94.54666137695312 124.11778259277344 94.45999145507812 C 124.304443359375 94.37332916259766 124.42111206054688 94.32999420166016 124.46778106689453 94.32999420166016 C 124.57444763183594 94.50332641601562 124.63777923583984 94.6199951171875 124.65778350830078 94.67999267578125 C 124.67778015136719 94.74665832519531 124.68778228759766 94.80332946777344 124.68778228759766 94.84999084472656 C 124.68778228759766 94.92999267578125 124.56111145019531 95.04999542236328 124.30778503417969 95.20999145507812 C 124.04778289794922 95.3699951171875 123.7411117553711 95.5333251953125 123.38777923583984 95.69998931884766 C 123.0344467163086 95.85999298095703 122.68778228759766 96.00332641601562 122.3477783203125 96.12998962402344 C 122.00778198242188 96.25666046142578 121.75111389160156 96.31999206542969 121.5777816772461 96.31999206542969 C 121.36444854736328 96.31999206542969 121.15111541748047 96.25999450683594 120.93778228759766 96.1399917602539 C 120.72444915771484 96.02665710449219 120.53778076171875 95.87332916259766 120.37777709960938 95.67999267578125 C 120.21778106689453 95.48665618896484 120.08778381347656 95.27332305908203 119.98777770996094 95.03999328613281 C 119.89444732666016 94.79999542236328 119.8477783203125 94.55332946777344 119.8477783203125 94.29999542236328 C 119.8477783203125 93.97999572753906 119.93778228759766 93.50332641601562 120.11778259277344 92.8699951171875 C 120.29778289794922 92.24332427978516 120.55111694335938 91.50666046142578 120.87777709960938 90.65998840332031 C 121.19778442382812 89.81332397460938 121.58111572265625 88.88665771484375 122.02777862548828 87.87998962402344 C 122.47444915771484 86.87998962402344 122.9544448852539 85.85665893554688 123.46778106689453 84.80998992919922 C 123.46778106689453 84.72332763671875 123.42778015136719 84.67999267578125 123.3477783203125 84.67999267578125 C 123.28111267089844 84.67999267578125 123.11444854736328 84.7633285522461 122.8477783203125 84.92999267578125 C 122.58111572265625 85.10332489013672 122.3277816772461 85.27665710449219 122.08778381347656 85.44998931884766 C 121.32111358642578 86.02332305908203 120.54778289794922 86.73332214355469 119.76777648925781 87.57999420166016 C 118.98777770996094 88.4266586303711 118.227783203125 89.34999084472656 117.48777770996094 90.34999084472656 C 116.75444793701172 91.35665893554688 116.06111145019531 92.42332458496094 115.40778350830078 93.54999542236328 C 114.75444793701172 94.66999053955078 114.19111633300781 95.79666137695312 113.71778106689453 96.92999267578125 C 113.65778350830078 97.07666015625 113.56111145019531 97.21665954589844 113.42778015136719 97.34999084472656 C 113.30111694335938 97.4766616821289 113.19445037841797 97.53999328613281 113.10778045654297 97.53999328613281 C 113.04778289794922 97.53999328613281 112.95777893066406 97.46665954589844 112.83778381347656 97.31999206542969 C 112.71778106689453 97.16665649414062 112.61111450195312 96.9766616821289 112.51778411865234 96.74999237060547 C 112.42444610595703 96.52999114990234 112.3344497680664 96.29999542236328 112.2477798461914 96.05998992919922 C 112.16111755371094 95.82666015625 112.11778259277344 95.62332916259766 112.11778259277344 95.44998931884766 ZM 132.52206420898438 97.1199951171875 C 131.30206298828125 96.99332427978516 130.3287353515625 96.45999145507812 129.60206604003906 95.51998901367188 C 128.87539672851562 94.57999420166016 128.51206970214844 93.3833236694336 128.51206970214844 91.92999267578125 C 128.51206970214844 91.06999206542969 128.63873291015625 90.17999267578125 128.89207458496094 89.25999450683594 C 129.15206909179688 88.33999633789062 129.51541137695312 87.44998931884766 129.98207092285156 86.58999633789062 C 130.4553985595703 85.72332763671875 131.01206970214844 84.90332794189453 131.65206909179688 84.12998962402344 C 132.2920684814453 83.36332702636719 132.98873901367188 82.69998931884766 133.7420654296875 82.1399917602539 C 134.9154052734375 81.26666259765625 136.01541137695312 80.82999420166016 137.0420684814453 80.82999420166016 C 137.72872924804688 81.18999481201172 138.40206909179688 81.94998931884766 139.06207275390625 83.10999298095703 C 139.16873168945312 83.10999298095703 139.26541137695312 83.10332489013672 139.35206604003906 83.08999633789062 C 139.43873596191406 83.07666015625 139.535400390625 83.06999206542969 139.64207458496094 83.06999206542969 C 140.77540588378906 83.06999206542969 141.34207153320312 84.07666015625 141.34207153320312 86.08999633789062 C 141.34207153320312 87.43666076660156 141.1220703125 88.71332550048828 140.68206787109375 89.91999053955078 C 140.2420654296875 91.12665557861328 139.63206481933594 92.22332763671875 138.85206604003906 93.20999145507812 C 138.0720672607422 94.18999481201172 137.14207458496094 95.01998901367188 136.06207275390625 95.69998931884766 C 134.98207092285156 96.37332916259766 133.80206298828125 96.8466567993164 132.52206420898438 97.1199951171875 M 134.15206909179688 87.01998901367188 C 133.7920684814453 87.5133285522461 133.4520721435547 88.04666137695312 133.13206481933594 88.6199951171875 C 132.80540466308594 89.19998931884766 132.52540588378906 89.7833251953125 132.2920684814453 90.3699951171875 C 132.05873107910156 90.95665740966797 131.8787384033203 91.52332305908203 131.7520751953125 92.06999206542969 C 131.61874389648438 92.61666107177734 131.55206298828125 93.10332489013672 131.55206298828125 93.52999114990234 C 131.55206298828125 94.04332733154297 131.63873291015625 94.53665924072266 131.81207275390625 95.00999450683594 C 131.9853973388672 95.4766616821289 132.17874145507812 95.74332427978516 132.39207458496094 95.80998992919922 C 133.35206604003906 95.5966567993164 134.23207092285156 95.19332885742188 135.03207397460938 94.59999084472656 C 135.83872985839844 94.0133285522461 136.535400390625 93.2833251953125 137.1220703125 92.40999603271484 C 137.708740234375 91.52999114990234 138.16873168945312 90.5333251953125 138.5020751953125 89.41999053955078 C 138.8354034423828 88.31332397460938 139.0020751953125 87.12666320800781 139.0020751953125 85.85999298095703 C 139.0020751953125 85.30665588378906 138.96873474121094 84.8699951171875 138.90206909179688 84.54999542236328 C 138.8354034423828 84.22999572753906 138.72872924804688 83.95332336425781 138.5820770263672 83.7199935913086 C 137.64207458496094 83.99332427978516 136.80206298828125 84.43999481201172 136.06207275390625 85.05998992919922 C 135.3220672607422 85.67999267578125 134.68540954589844 86.33332824707031 134.15206909179688 87.01998901367188 ZM 140.5368194580078 106.6199951171875 C 140.23681640625 106.5333251953125 140.0668182373047 106.20999145507812 140.0268096923828 105.64999389648438 C 139.94015502929688 105.37666320800781 139.88014221191406 105.04666137695312 139.84681701660156 104.65998840332031 C 139.8134765625 104.27332305908203 139.79681396484375 103.83666229248047 139.79681396484375 103.34999084472656 C 139.79681396484375 102.89665985107422 139.8734893798828 102.27999114990234 140.0268096923828 101.49999237060547 C 140.17347717285156 100.7199935913086 140.38014221191406 99.83666229248047 140.64682006835938 98.84999084472656 C 140.91348266601562 97.8699951171875 141.24014282226562 96.80665588378906 141.62681579589844 95.65999603271484 C 142.01348876953125 94.51998901367188 142.44015502929688 93.35999298095703 142.9068145751953 92.17999267578125 C 143.48681640625 90.70665740966797 143.99014282226562 89.42999267578125 144.41680908203125 88.34999084472656 C 144.84347534179688 87.26998901367188 145.20347595214844 86.33332824707031 145.49681091308594 85.53999328613281 C 145.78347778320312 84.75332641601562 146.01681518554688 84.10332489013672 146.19680786132812 83.58999633789062 C 146.37681579589844 83.07666015625 146.5201416015625 82.63665771484375 146.62681579589844 82.26998901367188 C 146.71348571777344 82.01666259765625 146.84347534179688 81.70665740966797 147.01681518554688 81.33999633789062 C 147.19015502929688 80.97999572753906 147.38681030273438 80.60999298095703 147.6068115234375 80.22999572753906 C 147.83348083496094 79.85665893554688 148.0634765625 79.50666046142578 148.29681396484375 79.17999267578125 C 148.5301513671875 78.8466567993164 148.7434844970703 78.59332275390625 148.9368133544922 78.41999053955078 C 149.69015502929688 78.52665710449219 150.39682006835938 78.7199935913086 151.0568084716797 78.99999237060547 C 151.71681213378906 79.27999114990234 152.12347412109375 79.54666137695312 152.2768096923828 79.79998779296875 C 151.97682189941406 80.07999420166016 151.63348388671875 80.5133285522461 151.24681091308594 81.09999084472656 C 150.8668212890625 81.68666076660156 150.4934844970703 82.32999420166016 150.12681579589844 83.02999114990234 C 149.76681518554688 83.72332763671875 149.4368133544922 84.4333267211914 149.13681030273438 85.15998840332031 C 148.83682250976562 85.88665771484375 148.6101531982422 86.52665710449219 148.45681762695312 87.07999420166016 C 148.67015075683594 86.7199935913086 148.9501495361328 86.32666015625 149.29681396484375 85.89999389648438 C 149.63681030273438 85.46665954589844 150.16015625 84.87666320800781 150.8668212890625 84.12998962402344 C 151.6534881591797 83.31665802001953 152.39682006835938 82.69332885742188 153.09681701660156 82.25999450683594 C 153.79014587402344 81.81999206542969 154.3934783935547 81.59999084472656 154.9068145751953 81.59999084472656 C 155.72015380859375 81.59999084472656 156.38681030273438 81.82332611083984 156.9068145751953 82.26998901367188 C 157.43348693847656 82.72332763671875 157.69680786132812 83.29999542236328 157.69680786132812 83.99999237060547 C 157.69680786132812 85.53999328613281 157.44015502929688 87.06332397460938 156.92681884765625 88.56999206542969 C 156.41348266601562 90.08332824707031 155.67681884765625 91.4466552734375 154.71681213378906 92.65999603271484 C 154.3501434326172 93.1333236694336 153.92015075683594 93.58332824707031 153.42681884765625 94.00999450683594 C 152.94015502929688 94.43666076660156 152.42681884765625 94.81665802001953 151.88681030273438 95.14999389648438 C 151.35348510742188 95.48332214355469 150.8301544189453 95.74665832519531 150.3168182373047 95.93999481201172 C 149.80348205566406 96.12665557861328 149.34347534179688 96.2199935913086 148.9368133544922 96.2199935913086 C 148.5568084716797 96.2199935913086 148.22015380859375 96.1399917602539 147.92681884765625 95.97999572753906 C 147.64015197753906 95.81999206542969 147.4434814453125 95.62332916259766 147.33682250976562 95.3899917602539 C 148.17015075683594 94.89665985107422 148.9834747314453 94.21332550048828 149.7768096923828 93.3399887084961 C 150.5634765625 92.45999145507812 151.29348754882812 91.44998931884766 151.96681213378906 90.30998992919922 C 152.64682006835938 89.16332244873047 153.23681640625 87.9266586303711 153.73681640625 86.59999084472656 C 154.23681640625 85.27332305908203 154.6168212890625 83.9266586303711 154.87681579589844 82.55998992919922 C 154.0634765625 82.98665618896484 153.3301544189453 83.45332336425781 152.67681884765625 83.95999145507812 C 152.0234832763672 84.45999145507812 151.37681579589844 85.11666107177734 150.73681640625 85.92999267578125 C 149.97015380859375 86.8699951171875 149.3601531982422 87.62998962402344 148.9068145751953 88.20999145507812 C 148.46014404296875 88.7833251953125 148.09014892578125 89.27332305908203 147.79681396484375 89.67999267578125 C 147.51014709472656 90.08666229248047 147.2768096923828 90.46665954589844 147.09681701660156 90.81999206542969 C 146.91680908203125 91.17332458496094 146.72015380859375 91.60665893554688 146.50682067871094 92.1199951171875 C 146.20681762695312 92.80665588378906 145.8568115234375 93.70999145507812 145.45681762695312 94.82999420166016 C 145.0634765625 95.94998931884766 144.6568145751953 97.20665740966797 144.23681640625 98.59999084472656 C 143.823486328125 99.98665618896484 143.4068145751953 101.46665954589844 142.98681640625 103.03999328613281 C 142.573486328125 104.61332702636719 142.17347717285156 106.17999267578125 141.7868194580078 107.739990234375 C 141.55348205566406 107.69998931884766 141.3501434326172 107.52999114990234 141.17681884765625 107.22999572753906 C 141.00347900390625 107.03665924072266 140.88014221191406 106.89665985107422 140.8068084716797 106.80998992919922 C 140.7334747314453 106.72332763671875 140.6434783935547 106.65998840332031 140.5368194580078 106.6199951171875 ZM 170.32839965820312 82.7199935913086 C 170.24839782714844 84.04666137695312 170.01507568359375 85.18666076660156 169.62840270996094 86.1399917602539 C 169.24172973632812 87.08666229248047 168.69174194335938 87.91999053955078 167.97840881347656 88.6399917602539 C 167.25840759277344 89.35332489013672 166.38507080078125 89.99999237060547 165.3583984375 90.57999420166016 C 164.3317413330078 91.15998840332031 163.13507080078125 91.71665954589844 161.76840209960938 92.24999237060547 C 161.76840209960938 92.37665557861328 161.76173400878906 92.50999450683594 161.74839782714844 92.64999389648438 C 161.74172973632812 92.78999328613281 161.7384033203125 92.9333267211914 161.7384033203125 93.07999420166016 C 161.7384033203125 93.35999298095703 161.75840759277344 93.64999389648438 161.79840087890625 93.94998931884766 C 161.84506225585938 94.24999237060547 161.92173767089844 94.52665710449219 162.0283966064453 94.77999114990234 C 162.13507080078125 95.03999328613281 162.28506469726562 95.24999237060547 162.47840881347656 95.40999603271484 C 162.66506958007812 95.56999206542969 162.9084014892578 95.64999389648438 163.20840454101562 95.64999389648438 C 163.7884063720703 95.64999389648438 164.35507202148438 95.51998901367188 164.9084014892578 95.25999450683594 C 165.46839904785156 95.00666046142578 165.99839782714844 94.69332885742188 166.49839782714844 94.31999206542969 C 167.00506591796875 93.93999481201172 167.47506713867188 93.5333251953125 167.9084014892578 93.09999084472656 C 168.34840393066406 92.65999603271484 168.7384033203125 92.25666046142578 169.07839965820312 91.8899917602539 C 169.29173278808594 92.08332824707031 169.47506713867188 92.26666259765625 169.62840270996094 92.43999481201172 C 168.66839599609375 93.7199935913086 167.6150665283203 94.7833251953125 166.46839904785156 95.62998962402344 C 165.3217315673828 96.4766616821289 164.23507690429688 97.01666259765625 163.20840454101562 97.24999237060547 C 161.73507690429688 97.07666015625 160.58840942382812 96.53665924072266 159.76840209960938 95.62998962402344 C 158.94174194335938 94.72332763671875 158.5283966064453 93.62665557861328 158.5283966064453 92.3399887084961 C 158.5283966064453 91.46665954589844 158.6517333984375 90.57666015625 158.89840698242188 89.66999053955078 C 159.1450653076172 88.75666046142578 159.4884033203125 87.87666320800781 159.92840576171875 87.02999114990234 C 160.3617401123047 86.18999481201172 160.8750762939453 85.39665985107422 161.46839904785156 84.64999389648438 C 162.05506896972656 83.89665985107422 162.68507385253906 83.24332427978516 163.3583984375 82.68999481201172 C 164.03173828125 82.12998962402344 164.72506713867188 81.68999481201172 165.4384002685547 81.3699951171875 C 166.1584014892578 81.04999542236328 166.87173461914062 80.8899917602539 167.57839965820312 80.8899917602539 C 168.55841064453125 81.01666259765625 169.47506713867188 81.62666320800781 170.32839965820312 82.7199935913086 M 168.118408203125 83.77999114990234 C 167.54507446289062 83.86666107177734 166.945068359375 84.09999084472656 166.3184051513672 84.47999572753906 C 165.6984100341797 84.86666107177734 165.118408203125 85.37998962402344 164.57839965820312 86.01998901367188 C 164.03173828125 86.66665649414062 163.53506469726562 87.41665649414062 163.08840942382812 88.26998901367188 C 162.63507080078125 89.12332916259766 162.28173828125 90.04332733154297 162.0283966064453 91.02999114990234 C 163.73507690429688 90.1766586303711 165.1550750732422 89.12332916259766 166.2884063720703 87.8699951171875 C 167.42173767089844 86.61666107177734 168.03173828125 85.25332641601562 168.118408203125 83.77999114990234 ZM 183.2891082763672 82.7199935913086 C 183.2091064453125 84.04666137695312 182.9757843017578 85.18666076660156 182.589111328125 86.1399917602539 C 182.2024383544922 87.08666229248047 181.65245056152344 87.91999053955078 180.93911743164062 88.6399917602539 C 180.2191162109375 89.35332489013672 179.3457794189453 89.99999237060547 178.31910705566406 90.57999420166016 C 177.29244995117188 91.15998840332031 176.0957794189453 91.71665954589844 174.72911071777344 92.24999237060547 C 174.72911071777344 92.37665557861328 174.72244262695312 92.50999450683594 174.7091064453125 92.64999389648438 C 174.7024383544922 92.78999328613281 174.69911193847656 92.9333267211914 174.69911193847656 93.07999420166016 C 174.69911193847656 93.35999298095703 174.7191162109375 93.64999389648438 174.7591094970703 93.94998931884766 C 174.8057861328125 94.24999237060547 174.8824462890625 94.52665710449219 174.98910522460938 94.77999114990234 C 175.0957794189453 95.03999328613281 175.2457733154297 95.24999237060547 175.43911743164062 95.40999603271484 C 175.6257781982422 95.56999206542969 175.86911010742188 95.64999389648438 176.1691131591797 95.64999389648438 C 176.74911499023438 95.64999389648438 177.31578063964844 95.51998901367188 177.86911010742188 95.25999450683594 C 178.42910766601562 95.00666046142578 178.9591064453125 94.69332885742188 179.4591064453125 94.31999206542969 C 179.9657745361328 93.93999481201172 180.43577575683594 93.5333251953125 180.86911010742188 93.09999084472656 C 181.30911254882812 92.65999603271484 181.69911193847656 92.25666046142578 182.0391082763672 91.8899917602539 C 182.25244140625 92.08332824707031 182.43577575683594 92.26666259765625 182.589111328125 92.43999481201172 C 181.62911987304688 93.7199935913086 180.57577514648438 94.7833251953125 179.42910766601562 95.62998962402344 C 178.28244018554688 96.4766616821289 177.19578552246094 97.01666259765625 176.1691131591797 97.24999237060547 C 174.69578552246094 97.07666015625 173.5491180419922 96.53665924072266 172.72911071777344 95.62998962402344 C 171.90245056152344 94.72332763671875 171.48910522460938 93.62665557861328 171.48910522460938 92.3399887084961 C 171.48910522460938 91.46665954589844 171.61244201660156 90.57666015625 171.85911560058594 89.66999053955078 C 172.10577392578125 88.75666046142578 172.44911193847656 87.87666320800781 172.8891143798828 87.02999114990234 C 173.32244873046875 86.18999481201172 173.83578491210938 85.39665985107422 174.42910766601562 84.64999389648438 C 175.01577758789062 83.89665985107422 175.64578247070312 83.24332427978516 176.31910705566406 82.68999481201172 C 176.99244689941406 82.12998962402344 177.68577575683594 81.68999481201172 178.39910888671875 81.3699951171875 C 179.11911010742188 81.04999542236328 179.8324432373047 80.8899917602539 180.5391082763672 80.8899917602539 C 181.51910400390625 81.01666259765625 182.43577575683594 81.62666320800781 183.2891082763672 82.7199935913086 M 181.07911682128906 83.77999114990234 C 180.5057830810547 83.86666107177734 179.90577697753906 84.09999084472656 179.27911376953125 84.47999572753906 C 178.65911865234375 84.86666107177734 178.07911682128906 85.37998962402344 177.5391082763672 86.01998901367188 C 176.99244689941406 86.66665649414062 176.4957733154297 87.41665649414062 176.0491180419922 88.26998901367188 C 175.5957794189453 89.12332916259766 175.24244689941406 90.04332733154297 174.98910522460938 91.02999114990234 C 176.69578552246094 90.1766586303711 178.11578369140625 89.12332916259766 179.24911499023438 87.8699951171875 C 180.3824462890625 86.61666107177734 180.99244689941406 85.25332641601562 181.07911682128906 83.77999114990234 ZM 195.8360595703125 83.22999572753906 C 195.81605529785156 83.63665771484375 195.7460479736328 84.05998992919922 195.6260528564453 84.49999237060547 C 195.5060577392578 84.93999481201172 195.3627166748047 85.33666229248047 195.196044921875 85.68999481201172 C 195.02272033691406 86.04332733154297 194.83938598632812 86.33666229248047 194.64605712890625 86.56999206542969 C 194.4527130126953 86.80332946777344 194.27272033691406 86.91999053955078 194.10604858398438 86.91999053955078 C 193.86605834960938 86.89999389648438 193.72604370117188 86.739990234375 193.68605041503906 86.43999481201172 C 193.68605041503906 86.37998962402344 193.7127227783203 86.27999114990234 193.76605224609375 86.1399917602539 C 193.8193817138672 85.99999237060547 193.8760528564453 85.84332275390625 193.93605041503906 85.66999053955078 C 194.00271606445312 85.50332641601562 194.06271362304688 85.33332824707031 194.11605834960938 85.15998840332031 C 194.1693878173828 84.98665618896484 194.196044921875 84.83666229248047 194.196044921875 84.70999145507812 C 194.196044921875 84.40998840332031 194.1260528564453 84.15998840332031 193.98605346679688 83.95999145507812 C 193.84605407714844 83.75332641601562 193.6593780517578 83.64999389648438 193.42605590820312 83.64999389648438 C 192.57272338867188 83.64999389648438 191.92271423339844 84.1833267211914 191.47604370117188 85.24999237060547 C 191.02272033691406 86.32332611083984 190.79605102539062 87.89665985107422 190.79605102539062 89.9699935913086 C 190.79605102539062 90.1833267211914 190.80604553222656 90.30998992919922 190.8260498046875 90.34999084472656 C 191.27938842773438 90.32999420166016 191.68272399902344 90.31665802001953 192.0360565185547 90.30998992919922 C 192.38938903808594 90.29666137695312 192.73605346679688 90.28999328613281 193.0760498046875 90.28999328613281 C 193.09605407714844 90.32999420166016 193.10604858398438 90.41665649414062 193.10604858398438 90.54999542236328 C 193.10604858398438 90.74332427978516 193.06271362304688 90.87998962402344 192.97604370117188 90.95999145507812 C 192.4827117919922 91.06665802001953 192.09271240234375 91.15998840332031 191.80604553222656 91.239990234375 C 191.51937866210938 91.31332397460938 191.29937744140625 91.3833236694336 191.14605712890625 91.44998931884766 C 190.9993896484375 91.50999450683594 190.9093780517578 91.57666015625 190.8760528564453 91.64999389648438 C 190.84271240234375 91.72999572753906 190.8260498046875 91.83332824707031 190.8260498046875 91.95999145507812 C 190.8260498046875 92.1333236694336 190.8327178955078 92.30332946777344 190.84605407714844 92.4699935913086 C 190.85939025878906 92.64332580566406 190.86605834960938 92.85665893554688 190.86605834960938 93.10999298095703 C 190.86605834960938 94.90999603271484 190.37937927246094 96.35332489013672 189.4060516357422 97.43999481201172 C 188.43272399902344 98.5333251953125 187.0793914794922 99.16665649414062 185.34605407714844 99.3399887084961 C 185.04605102539062 99.31332397460938 184.73605346679688 99.2266616821289 184.41604614257812 99.07999420166016 C 184.09605407714844 98.9266586303711 183.7893829345703 98.73332214355469 183.4960479736328 98.49999237060547 C 183.20938110351562 98.26666259765625 182.95938110351562 98.00666046142578 182.7460479736328 97.7199935913086 C 182.53271484375 97.4266586303711 182.38272094726562 97.12998962402344 182.29605102539062 96.82999420166016 C 182.29605102539062 96.02332305908203 182.46604919433594 95.24999237060547 182.80604553222656 94.50999450683594 C 183.15272521972656 93.76998901367188 183.619384765625 93.11666107177734 184.2060546875 92.54999542236328 C 184.792724609375 91.98332214355469 185.48605346679688 91.52332305908203 186.2860565185547 91.16999053955078 C 187.09271240234375 90.81665802001953 187.96604919433594 90.60999298095703 188.9060516357422 90.54999542236328 C 188.9060516357422 90.01666259765625 188.85272216796875 89.49332427978516 188.7460479736328 88.97999572753906 C 188.63938903808594 88.46665954589844 188.5260467529297 87.96665954589844 188.4060516357422 87.47999572753906 C 188.292724609375 86.99999237060547 188.18272399902344 86.52999114990234 188.0760498046875 86.06999206542969 C 187.9627227783203 85.60999298095703 187.9060516357422 85.15666198730469 187.9060516357422 84.70999145507812 C 187.9060516357422 84.12998962402344 188.0260467529297 83.55665588378906 188.26605224609375 82.989990234375 C 188.4993896484375 82.42332458496094 188.80938720703125 81.89999389648438 189.196044921875 81.41999053955078 C 189.5827178955078 80.93999481201172 190.02938842773438 80.52999114990234 190.5360565185547 80.18999481201172 C 191.04937744140625 79.84332275390625 191.5860595703125 79.60665893554688 192.14605712890625 79.47999572753906 C 192.37937927246094 79.54666137695312 192.69271850585938 79.73332214355469 193.0860595703125 80.03999328613281 C 193.48605346679688 80.35332489013672 193.87937927246094 80.69998931884766 194.26605224609375 81.07999420166016 C 194.64605712890625 81.46665954589844 194.98605346679688 81.85999298095703 195.2860565185547 82.25999450683594 C 195.5860595703125 82.65332794189453 195.76937866210938 82.9766616821289 195.8360595703125 83.22999572753906 M 185.2460479736328 97.85999298095703 C 185.75938415527344 97.64665985107422 186.2460479736328 97.33666229248047 186.7060546875 96.92999267578125 C 187.16604614257812 96.52332305908203 187.56605529785156 96.06332397460938 187.9060516357422 95.54999542236328 C 188.25271606445312 95.03665924072266 188.5260467529297 94.49332427978516 188.72605895996094 93.91999053955078 C 188.93272399902344 93.3399887084961 189.0360565185547 92.77332305908203 189.0360565185547 92.2199935913086 C 188.60939025878906 92.27999114990234 188.13938903808594 92.4766616821289 187.6260528564453 92.80998992919922 C 187.1127166748047 93.14332580566406 186.62937927246094 93.53999328613281 186.17605590820312 93.99999237060547 C 185.72938537597656 94.45332336425781 185.35604858398438 94.9266586303711 185.05604553222656 95.41999053955078 C 184.7560577392578 95.91332244873047 184.60604858398438 96.34332275390625 184.60604858398438 96.70999145507812 C 184.60604858398438 97.1766586303711 184.8193817138672 97.55998992919922 185.2460479736328 97.85999298095703 ZM 207.92233276367188 91.02999114990234 C 207.4290008544922 92.5899887084961 206.93899536132812 94.00999450683594 206.45233154296875 95.28999328613281 C 205.95899963378906 96.57666015625 205.43234252929688 97.75999450683594 204.87232971191406 98.8399887084961 C 204.31900024414062 99.91999053955078 203.7223358154297 100.91332244873047 203.08233642578125 101.81999206542969 C 202.4423370361328 102.7266616821289 201.7356719970703 103.58666229248047 200.96234130859375 104.39999389648438 C 199.98233032226562 105.4266586303711 198.96566772460938 106.21332550048828 197.91233825683594 106.75999450683594 C 196.86566162109375 107.30665588378906 195.81900024414062 107.57999420166016 194.7723388671875 107.57999420166016 C 194.23899841308594 107.57999420166016 193.70899963378906 107.51998901367188 193.1823272705078 107.39999389648438 C 192.66233825683594 107.28665924072266 192.17233276367188 107.12666320800781 191.71234130859375 106.91999053955078 C 191.25233459472656 106.7199935913086 190.84567260742188 106.48665618896484 190.49234008789062 106.2199935913086 C 190.13900756835938 105.95332336425781 189.8856658935547 105.66999053955078 189.73233032226562 105.3699951171875 C 189.73233032226562 105.10999298095703 189.88233947753906 104.8833236694336 190.1823272705078 104.68999481201172 C 190.4423370361328 104.92999267578125 190.65899658203125 105.11332702636719 190.83233642578125 105.239990234375 C 190.99900817871094 105.36666107177734 191.16233825683594 105.47332763671875 191.3223419189453 105.55998992919922 C 191.48233032226562 105.64665985107422 191.65567016601562 105.69998931884766 191.8423309326172 105.7199935913086 C 192.0223388671875 105.739990234375 192.22900390625 105.74999237060547 192.46234130859375 105.74999237060547 C 193.6823272705078 105.74999237060547 194.87567138671875 105.39332580566406 196.04232788085938 104.67999267578125 C 197.20899963378906 103.95999145507812 198.3090057373047 102.94332885742188 199.3423309326172 101.62998962402344 C 200.38233947753906 100.31665802001953 201.32899475097656 98.72332763671875 202.18234252929688 96.84999084472656 C 203.03567504882812 94.9766616821289 203.7623291015625 92.88665771484375 204.36233520507812 90.57999420166016 C 204.08233642578125 91.00666046142578 203.73899841308594 91.52999114990234 203.33233642578125 92.14999389648438 C 202.93234252929688 92.76998901367188 202.4856719970703 93.38665771484375 201.99234008789062 93.99999237060547 C 201.49900817871094 94.60665893554688 200.98899841308594 95.15666198730469 200.46234130859375 95.64999389648438 C 199.9423370361328 96.13665771484375 199.4356689453125 96.46665954589844 198.9423370361328 96.6399917602539 C 198.6023406982422 96.6199951171875 198.24566650390625 96.54999542236328 197.87232971191406 96.42999267578125 C 197.49234008789062 96.31665802001953 197.13900756835938 96.15332794189453 196.8123321533203 95.93999481201172 C 196.47900390625 95.7266616821289 196.1856689453125 95.4699935913086 195.9323272705078 95.16999053955078 C 195.67233276367188 94.8699951171875 195.49900817871094 94.52665710449219 195.41233825683594 94.1399917602539 C 195.41233825683594 93.51998901367188 195.4356689453125 93.02332305908203 195.48233032226562 92.64999389648438 C 195.5223388671875 92.27665710449219 195.59567260742188 91.86332702636719 195.70233154296875 91.40998840332031 C 195.89566040039062 90.5966567993164 196.1790008544922 89.6766586303711 196.55233764648438 88.64999389648438 C 196.92567443847656 87.62998962402344 197.36566162109375 86.6199951171875 197.87232971191406 85.6199951171875 C 198.37232971191406 84.62666320800781 198.92567443847656 83.6966552734375 199.53233337402344 82.82999420166016 C 200.14566040039062 81.96332550048828 200.78233337402344 81.28665924072266 201.4423370361328 80.79999542236328 C 201.61566162109375 80.79999542236328 201.82899475097656 80.81332397460938 202.08233642578125 80.83999633789062 C 202.3423309326172 80.87332153320312 202.61233520507812 80.9333267211914 202.892333984375 81.01998901367188 C 203.16566467285156 81.10665893554688 203.43234252929688 81.20999145507812 203.6923370361328 81.32999420166016 C 203.94566345214844 81.44332885742188 204.16900634765625 81.5966567993164 204.36233520507812 81.78999328613281 C 204.12899780273438 82.00332641601562 203.61566162109375 82.7199935913086 202.82232666015625 83.93999481201172 C 202.0290069580078 85.15998840332031 201.15232849121094 86.91332244873047 200.1923370361328 89.19998931884766 C 200.08566284179688 89.4333267211914 199.95899963378906 89.77665710449219 199.8123321533203 90.22999572753906 C 199.65899658203125 90.6766586303711 199.5123291015625 91.14665985107422 199.37232971191406 91.6399917602539 C 199.23899841308594 92.1333236694336 199.11566162109375 92.61332702636719 199.00233459472656 93.07999420166016 C 198.89566040039062 93.55332946777344 198.8423309326172 93.9266586303711 198.8423309326172 94.19998931884766 C 198.8423309326172 94.37332916259766 198.86900329589844 94.50332641601562 198.92233276367188 94.5899887084961 C 198.9756622314453 94.6766586303711 199.02566528320312 94.739990234375 199.0723419189453 94.77999114990234 C 199.45899963378906 94.71332550048828 199.9723358154297 94.39665985107422 200.61233520507812 93.82999420166016 C 201.25233459472656 93.2633285522461 201.97900390625 92.3833236694336 202.79232788085938 91.18999481201172 C 203.3056640625 90.41665649414062 203.77566528320312 89.65332794189453 204.20233154296875 88.89999389648438 C 204.62899780273438 88.1399917602539 205.05233764648438 87.37332153320312 205.4723358154297 86.59999084472656 C 205.8856658935547 85.83332824707031 206.31900024414062 85.04332733154297 206.7723388671875 84.22999572753906 C 207.218994140625 83.41665649414062 207.69900512695312 82.58332824707031 208.21234130859375 81.72999572753906 C 208.49234008789062 81.72999572753906 208.79232788085938 81.75999450683594 209.11233520507812 81.81999206542969 C 209.43234252929688 81.88665771484375 209.74234008789062 81.96665954589844 210.04232788085938 82.05998992919922 C 210.3423309326172 82.15998840332031 210.6023406982422 82.26666259765625 210.82232666015625 82.37998962402344 C 211.0489959716797 82.49999237060547 211.21566772460938 82.62332153320312 211.32232666015625 82.74999237060547 C 210.66233825683594 84.16332244873047 210.04232788085938 85.54332733154297 209.46234130859375 86.8899917602539 C 208.88900756835938 88.23665618896484 208.37567138671875 89.61666107177734 207.92233276367188 91.02999114990234 Z" transform="matrix(3.2777655124664307, 0, 0, 3.2777655124664307, -262.9723815917969, -226.19955444335938)" style="fill: rgb(51, 51, 51); white-space: pre; color: rgb(51, 51, 51);"/></svg>